<svg width="46" height="46" viewBox="0 0 46 46" fill="none" xmlns="http://www.w3.org/2000/svg">
<g filter="url(#filter0_i_54_140)">
<path d="M10.2431 35.9318C7.82334 35.627 5.51887 34.9308 3.39349 33.9141C6.8516 39.2331 12.5362 42.9986 19.0368 43.818C33.4939 45.6399 45.6399 33.4946 43.818 19.0368C42.9986 12.5365 39.2334 6.85219 33.9144 3.39404C34.9309 5.51924 35.627 7.82343 35.9319 10.243C37.8186 25.2153 25.2154 37.8185 10.2431 35.9318ZM10.2431 35.9318L10.4931 33.9475L10.2431 35.9318ZM0.667036 32.3721C0.667674 32.3726 0.668311 32.373 0.668949 32.3734L0.666755 32.372L0.667036 32.3721Z" stroke="#469980" stroke-width="4"/>
</g>
<defs>
<filter id="filter0_i_54_140" x="0" y="0" width="46" height="50" filterUnits="userSpaceOnUse" color-interpolation-filters="sRGB">
<feFlood flood-opacity="0" result="BackgroundImageFix"/>
<feBlend mode="normal" in="SourceGraphic" in2="BackgroundImageFix" result="shape"/>
<feColorMatrix in="SourceAlpha" type="matrix" values="0 0 0 0 0 0 0 0 0 0 0 0 0 0 0 0 0 0 127 0" result="hardAlpha"/>
<feOffset dy="4"/>
<feGaussianBlur stdDeviation="2"/>
<feComposite in2="hardAlpha" operator="arithmetic" k2="-1" k3="1"/>
<feColorMatrix type="matrix" values="0 0 0 0 0 0 0 0 0 0 0 0 0 0 0 0 0 0 0.5 0"/>
<feBlend mode="normal" in2="shape" result="effect1_innerShadow_54_140"/>
</filter>
</defs>
</svg>
