<svg width="28" height="24" viewBox="0 0 28 24" fill="none" xmlns="http://www.w3.org/2000/svg">
<path d="M1 3.47375C1 2.74542 1.22293 2.13742 1.66878 1.64975C2.11367 1.16103 2.66833 0.916672 3.33278 0.916672H24.6672C25.3317 0.916672 25.8863 1.16103 26.3312 1.64975C26.7771 2.13742 27 2.74542 27 3.47375V7.25C27 7.47484 26.9307 7.66273 26.792 7.81367C26.6533 7.96567 26.4814 8.04167 26.2763 8.04167C26.0722 8.04167 25.9008 7.96567 25.7621 7.81367C25.6244 7.66273 25.5556 7.47484 25.5556 7.25V3.47375C25.5556 3.23098 25.4631 3.00773 25.2782 2.804C25.0924 2.60134 24.8887 2.50001 24.6672 2.50001H3.33278C3.1113 2.50001 2.90763 2.60134 2.72178 2.804C2.53689 3.00773 2.44444 3.23098 2.44444 3.47375V7.25C2.44444 7.47484 2.37511 7.66273 2.23644 7.81367C2.09778 7.96462 1.92637 8.04062 1.72222 8.04167C1.51807 8.04167 1.34667 7.96567 1.208 7.81367C1.06933 7.66273 1 7.47484 1 7.25V3.47375ZM3.33278 23.0833C2.66833 23.0833 2.11367 22.8395 1.66878 22.3518C1.22293 21.8631 1 21.2546 1 20.5263V16.75C1 16.5252 1.06933 16.3373 1.208 16.1863C1.34667 16.0343 1.51856 15.9583 1.72367 15.9583C1.92781 15.9583 2.09922 16.0343 2.23789 16.1863C2.37559 16.3383 2.44444 16.5262 2.44444 16.75V20.5263C2.44444 20.769 2.53689 20.9923 2.72178 21.196C2.90763 21.3987 3.1113 21.5 3.33278 21.5H24.6672C24.8887 21.5 25.0924 21.3987 25.2782 21.196C25.4631 20.9923 25.5556 20.769 25.5556 20.5263V16.75C25.5556 16.5252 25.6249 16.3373 25.7636 16.1863C25.9022 16.0354 26.0741 15.9594 26.2792 15.9583C26.4834 15.9583 26.6548 16.0343 26.7934 16.1863C26.9311 16.3383 27 16.5262 27 16.75V20.5263C27 21.2546 26.7776 21.8626 26.3327 22.3503C25.8868 22.839 25.3317 23.0833 24.6672 23.0833H3.33278ZM11.1111 19.125C11.2459 19.125 11.3745 19.0881 11.4968 19.0142C11.6191 18.9403 11.7106 18.8294 11.7712 18.6817L16.8889 7.46217L19.1162 12.3452C19.1779 12.4929 19.2698 12.6038 19.3921 12.6777C19.5144 12.7526 19.643 12.7901 19.7778 12.7901H26.2778C26.4829 12.7901 26.6543 12.7141 26.792 12.5621C26.9307 12.4111 27 12.2238 27 12C27 11.7762 26.9307 11.5883 26.792 11.4363C26.6543 11.2854 26.4829 11.2099 26.2778 11.2099H20.2357L17.549 5.31992C17.4922 5.18692 17.4065 5.09298 17.2919 5.03809C17.1773 4.9832 17.0473 4.95576 16.9019 4.95576C16.7574 4.95576 16.6246 4.9832 16.5032 5.03809C16.3819 5.09298 16.2904 5.18745 16.2288 5.32151L11.1111 16.5363L8.88378 11.6533C8.82215 11.5055 8.73019 11.3946 8.60789 11.3208C8.48559 11.2458 8.35704 11.2083 8.22222 11.2083H1.72222C1.51711 11.2083 1.3457 11.2843 1.208 11.4363C1.06933 11.5883 1 11.7762 1 12C1 12.2238 1.06933 12.4117 1.208 12.5637C1.3457 12.7146 1.51711 12.7901 1.72222 12.7901H7.76433L10.451 18.6801C10.5117 18.8279 10.6031 18.9387 10.7254 19.0126C10.8477 19.0865 10.9763 19.125 11.1111 19.125Z" fill="#155743" stroke="#155743" stroke-width="0.5"/>
</svg>
